<svg width="48" height="48" viewBox="0 0 48 48" fill="none" xmlns="http://www.w3.org/2000/svg">
<path d="M25.0854 31.86L41.0154 15.141C41.2813 14.862 41.4297 14.4914 41.4297 14.106C41.4297 13.7206 41.2813 13.35 41.0154 13.071L40.9974 13.053C40.8685 12.9173 40.7133 12.8092 40.5413 12.7354C40.3693 12.6615 40.1841 12.6235 39.9969 12.6235C39.8097 12.6235 39.6245 12.6615 39.4525 12.7354C39.2805 12.8092 39.1253 12.9173 38.9964 13.053L23.9964 28.797L9.0024 13.053C8.87349 12.9173 8.7183 12.8092 8.54631 12.7354C8.37431 12.6615 8.18908 12.6235 8.0019 12.6235C7.81472 12.6235 7.6295 12.6615 7.4575 12.7354C7.2855 12.8092 7.13033 12.9173 7.0014 13.053L6.9834 13.071C6.71747 13.35 6.56911 13.7206 6.56911 14.106C6.56911 14.4914 6.71747 14.862 6.9834 15.141L22.9134 31.86C23.0535 32.007 23.222 32.1241 23.4087 32.2041C23.5953 32.284 23.7963 32.3253 23.9994 32.3253C24.2025 32.3253 24.4035 32.284 24.5901 32.2041C24.7768 32.1241 24.9453 32.007 25.0854 31.86Z" fill="#0F142E"/>
</svg>
